<svg width="190" height="46" viewBox="0 0 190 46" fill="none" xmlns="http://www.w3.org/2000/svg">
<path d="M22.9997 0C35.7026 0 45.9997 10.2971 45.9997 23V39.1C45.9997 40.93 45.2728 42.685 43.9788 43.979C42.6848 45.273 40.9297 46 39.0997 46H24.1497V35.9099C24.1497 33.6076 24.29 31.2225 25.4975 29.2629C26.362 27.8586 27.5185 26.6566 28.8884 25.7385C30.2583 24.8204 31.8096 24.2077 33.4371 23.9418L33.8776 23.8705C34.0592 23.8085 34.2168 23.6912 34.3284 23.5351C34.44 23.379 34.5 23.1919 34.5 23C34.5 22.8081 34.44 22.621 34.3284 22.4649C34.2168 22.3088 34.0592 22.1915 33.8776 22.1294L33.4371 22.0581C31.0591 21.6697 28.8632 20.5441 27.1594 18.8403C25.4556 17.1365 24.3301 14.9406 23.9416 12.5626L23.8703 12.1222C23.8082 11.9406 23.6909 11.7829 23.5348 11.6713C23.3787 11.5597 23.1916 11.4997 22.9997 11.4997C22.8078 11.4997 22.6208 11.5597 22.4647 11.6713C22.3086 11.7829 22.1913 11.9406 22.1292 12.1222L22.0579 12.5626C21.7922 14.1902 21.1795 15.7415 20.2614 17.1114C19.3433 18.4814 18.1412 19.6378 16.7368 20.5022C14.7772 21.7097 12.3921 21.85 10.0898 21.85H0.0273438C0.628794 9.68185 10.6832 0 22.9997 0Z" fill="#5F6FFF"/>
<path d="M0 24.15H10.0901C12.3924 24.15 14.7775 24.2903 16.7371 25.4978C18.2689 26.4417 19.5583 27.7311 20.5022 29.2629C21.7097 31.2225 21.85 33.6076 21.85 35.9099V46H6.9C5.07001 46 3.31496 45.273 2.02096 43.979C0.726962 42.685 0 40.93 0 39.1L0 24.15ZM46 2.3C46 2.91 45.7577 3.49501 45.3263 3.92635C44.895 4.35768 44.31 4.6 43.7 4.6C43.09 4.6 42.505 4.35768 42.0737 3.92635C41.6423 3.49501 41.4 2.91 41.4 2.3C41.4 1.69 41.6423 1.10499 42.0737 0.673654C42.505 0.242321 43.09 0 43.7 0C44.31 0 44.895 0.242321 45.3263 0.673654C45.7577 1.10499 46 1.69 46 2.3Z" fill="#5F6FFF"/>
<path d="M62.61 37V32.886H68.696C70.2373 32.886 71.586 32.5687 72.742 31.934C73.898 31.2767 74.7933 30.3587 75.428 29.18C76.0853 28.0013 76.414 26.6073 76.414 24.998C76.414 23.434 76.0853 22.074 75.428 20.918C74.7707 19.7393 73.864 18.8327 72.708 18.198C71.552 17.5407 70.2147 17.212 68.696 17.212H62.508V13.098H68.764C70.532 13.098 72.164 13.3927 73.66 13.982C75.1787 14.5713 76.4933 15.41 77.604 16.498C78.7373 17.5633 79.61 18.8213 80.222 20.272C80.8567 21.7227 81.174 23.3093 81.174 25.032C81.174 26.7547 80.8567 28.3527 80.222 29.826C79.61 31.2767 78.7487 32.546 77.638 33.634C76.5273 34.6993 75.2127 35.5267 73.694 36.116C72.198 36.7053 70.5773 37 68.832 37H62.61ZM59.448 37V13.098H64.072V37H59.448ZM92.0904 37.34C90.4357 37.34 88.9397 36.966 87.6024 36.218C86.2877 35.4473 85.2337 34.416 84.4404 33.124C83.6697 31.8093 83.2844 30.3473 83.2844 28.738C83.2844 27.1287 83.6697 25.6893 84.4404 24.42C85.2111 23.128 86.2651 22.108 87.6024 21.36C88.9397 20.5893 90.4244 20.204 92.0564 20.204C93.7337 20.204 95.2297 20.5893 96.5444 21.36C97.8817 22.108 98.9357 23.128 99.7064 24.42C100.477 25.6893 100.862 27.1287 100.862 28.738C100.862 30.3473 100.477 31.8093 99.7064 33.124C98.9357 34.416 97.8817 35.4473 96.5444 36.218C95.2297 36.966 93.7451 37.34 92.0904 37.34ZM92.0564 33.192C92.8951 33.192 93.6317 33.0107 94.2664 32.648C94.9237 32.2627 95.4224 31.7413 95.7624 31.084C96.1251 30.404 96.3064 29.6333 96.3064 28.772C96.3064 27.9107 96.1251 27.1513 95.7624 26.494C95.3997 25.8367 94.9011 25.3267 94.2664 24.964C93.6317 24.5787 92.8951 24.386 92.0564 24.386C91.2404 24.386 90.5151 24.5787 89.8804 24.964C89.2457 25.3267 88.7471 25.8367 88.3844 26.494C88.0217 27.1513 87.8404 27.9107 87.8404 28.772C87.8404 29.6333 88.0217 30.404 88.3844 31.084C88.7471 31.7413 89.2457 32.2627 89.8804 32.648C90.5151 33.0107 91.2404 33.192 92.0564 33.192ZM111.482 37.34C109.804 37.34 108.297 36.966 106.96 36.218C105.622 35.47 104.568 34.45 103.798 33.158C103.027 31.866 102.642 30.4153 102.642 28.806C102.642 27.174 103.027 25.712 103.798 24.42C104.568 23.128 105.622 22.108 106.96 21.36C108.32 20.5893 109.827 20.204 111.482 20.204C112.774 20.204 113.964 20.442 115.052 20.918C116.14 21.394 117.08 22.074 117.874 22.958L115.018 25.848C114.587 25.372 114.066 25.0093 113.454 24.76C112.864 24.5107 112.207 24.386 111.482 24.386C110.666 24.386 109.929 24.5787 109.272 24.964C108.637 25.3267 108.127 25.8367 107.742 26.494C107.379 27.1287 107.198 27.888 107.198 28.772C107.198 29.6333 107.379 30.404 107.742 31.084C108.127 31.7413 108.637 32.2627 109.272 32.648C109.929 33.0107 110.666 33.192 111.482 33.192C112.23 33.192 112.898 33.0673 113.488 32.818C114.1 32.546 114.621 32.1607 115.052 31.662L117.942 34.552C117.103 35.4587 116.14 36.15 115.052 36.626C113.964 37.102 112.774 37.34 111.482 37.34ZM120.94 37V13.098H124.17L125.564 17.722V37H120.94ZM137.464 37L123.286 18.64L124.17 13.098L138.348 31.458L137.464 37ZM137.464 37L136.138 32.512V13.098H140.796V37H137.464ZM153.021 37.34C151.299 37.34 149.769 36.9773 148.431 36.252C147.094 35.504 146.029 34.484 145.235 33.192C144.465 31.9 144.079 30.4267 144.079 28.772C144.079 27.14 144.453 25.6893 145.201 24.42C145.972 23.128 147.015 22.108 148.329 21.36C149.644 20.5893 151.106 20.204 152.715 20.204C154.302 20.204 155.696 20.5667 156.897 21.292C158.121 21.9947 159.073 22.9693 159.753 24.216C160.456 25.44 160.807 26.834 160.807 28.398C160.807 28.6927 160.785 28.9987 160.739 29.316C160.717 29.6107 160.66 29.9507 160.569 30.336L146.765 30.37V27.038L158.495 27.004L156.693 28.398C156.648 27.4233 156.467 26.6073 156.149 25.95C155.855 25.2927 155.413 24.794 154.823 24.454C154.257 24.0913 153.554 23.91 152.715 23.91C151.831 23.91 151.061 24.114 150.403 24.522C149.746 24.9073 149.236 25.4627 148.873 26.188C148.533 26.8907 148.363 27.7293 148.363 28.704C148.363 29.7013 148.545 30.574 148.907 31.322C149.293 32.0473 149.837 32.614 150.539 33.022C151.242 33.4073 152.058 33.6 152.987 33.6C153.826 33.6 154.585 33.464 155.265 33.192C155.945 32.8973 156.535 32.4667 157.033 31.9L159.651 34.518C158.858 35.4473 157.883 36.15 156.727 36.626C155.594 37.102 154.359 37.34 153.021 37.34ZM169.206 37.374C168.277 37.374 167.359 37.2493 166.452 37C165.568 36.7507 164.752 36.4107 164.004 35.98C163.256 35.5267 162.61 34.9827 162.066 34.348L164.718 31.662C165.285 32.2967 165.942 32.7727 166.69 33.09C167.438 33.4073 168.265 33.566 169.172 33.566C169.897 33.566 170.441 33.464 170.804 33.26C171.189 33.056 171.382 32.75 171.382 32.342C171.382 31.8887 171.178 31.5373 170.77 31.288C170.385 31.0387 169.875 30.8347 169.24 30.676C168.605 30.4947 167.937 30.302 167.234 30.098C166.554 29.8713 165.897 29.588 165.262 29.248C164.627 28.8853 164.106 28.398 163.698 27.786C163.313 27.1513 163.12 26.3353 163.12 25.338C163.12 24.2953 163.369 23.3887 163.868 22.618C164.389 21.8473 165.126 21.2467 166.078 20.816C167.03 20.3853 168.152 20.17 169.444 20.17C170.804 20.17 172.028 20.408 173.116 20.884C174.227 21.36 175.145 22.074 175.87 23.026L173.184 25.712C172.685 25.1 172.119 24.658 171.484 24.386C170.872 24.114 170.203 23.978 169.478 23.978C168.821 23.978 168.311 24.08 167.948 24.284C167.608 24.488 167.438 24.7713 167.438 25.134C167.438 25.542 167.631 25.8593 168.016 26.086C168.424 26.3127 168.945 26.5167 169.58 26.698C170.215 26.8567 170.872 27.0493 171.552 27.276C172.255 27.48 172.912 27.7747 173.524 28.16C174.159 28.5453 174.669 29.0553 175.054 29.69C175.462 30.3247 175.666 31.1407 175.666 32.138C175.666 33.7473 175.088 35.028 173.932 35.98C172.776 36.9093 171.201 37.374 169.206 37.374ZM181.083 37V13.744H185.537V37H181.083ZM177.241 24.488V20.578H189.379V24.488H177.241Z" fill="#000B6D"/>
</svg>
